) (`-.                           (` .-') /`           ) (`-.
       ( OO ).                          `.( OO ),'            ( OO ).
      (_/.  _)-.-'),-----. ,--.     ,--./  .--.  .-'),-----.(_/.  _)-.
         `.'  ( OO'  .-.  '|  |.-') |      |  | ( OO'  .-.  '  `.'  /
             /Y   |  | |  ||  | OO )|  |   |  |,/   |  | |  |      /
             _) |  ||  ||  |`-' ||  |.'.|  |_)_) |  ||  |      |
        .'    _) |  | |  (|  '---.'|         |    |  | |  | .'    _)
       /  .'.    `'  '-'  '|      | |   ,'.   |    `'  '-'  '/  .'.  
      '--'   '--'   `-----' `------' '--'   '--'      `-----''--'   '--'


      ▀▀▀▀▀▀▀▀▀▀▀▀▀▀▀▀▀▀▀▀▀▀▀▀▀▀▀▀▀▀▀▀▀▀▀▀▀▀▀▀▀▀▀▀▀▀▀▀▀▀▀▀▀▀▀▀▀▀▀▀▀▀▀▀▀▀▀▀▀▀

                █░░░░░░░░░░░░░░░░░░░░░░░░░░░░░░░░░░░░░░█
               ██ Inglourious Basterds[2009]VhS-ScR-LW ██
                █░░░░░░░░░░░░░░░░░░░░░░░░░░░░░░░░░░░░░░█

File Name    : Inglourious Basterds[2009]VhS-ScR-LW
Type         : Movie
Format       : AVI
File Size    : 1.09 GB
Duration     : 02:32:44
Language     : English
Source       : DvD
Subtitles    : None
Genre        : Drama | War
IMDB Link    : http://www.imdb.com/title/tt0361748/
IMDB Rating  : 8.6/10
IMDB Votes   : 84,575 Votes
     ▄▄▄▄▄▄▄▄▄▄▄▄▄▄▄▄▄▄▄▄▄▄▄▄▄▄▄▄▄▄▄▄▄▄▄▄▄▄▄▄▄▄▄▄▄▄▄▄▄▄▄▄▄▄▄▄▄▄▄▄▄▄▄▄▄▄▄▄▄▄
 
                        █░░░░░░░░░░░░░░░░░░░░░░░░█
                       ██       Video Info       ██
                        █░░░░░░░░░░░░░░░░░░░░░░░░█

Format                           : MPEG-4 Visual
Format profile                   : Streaming Video@L1
Format settings, BVOP            : Yes
Format settings, QPel            : No
Format settings, GMC             : No warppoints
Format settings, Matrix          : Default (H.263)
Muxing mode                      : Packed bitstream
Codec ID                         : XVID
Codec ID/Hint                    : XviD
Duration                         : 2h 32mn
Bit rate                         : 888 Kbps
Width                            : 624 pixels
Height                           : 352 pixels
Display aspect ratio             : 16/9
Frame rate                       : 23.976 fps
Resolution                       : 24 bits
Colorimetry                      : 4:2:0
Scan type                        : Progressive
Bits/(Pixel*Frame)               : 0.169
Stream size                      : 970 MiB (87%)
Writing library                  : XviD 1.2.1
     ▄▄▄▄▄▄▄▄▄▄▄▄▄▄▄▄▄▄▄▄▄▄▄▄▄▄▄▄▄▄▄▄▄▄▄▄▄▄▄▄▄▄▄▄▄▄▄▄▄▄▄▄▄▄▄▄▄▄▄▄▄▄▄▄▄▄▄▄▄▄

                         █░░░░░░░░░░░░░░░░░░░░░░░░█
                        ██      Sound Info        ██
                         █░░░░░░░░░░░░░░░░░░░░░░░░█

Format                           : MPEG Audio
Format version                   : Version 1
Format profile                   : Layer 3
Codec ID                         : 55
Codec ID/Hint                    : MP3
Duration                         : 2h 32mn
Bit rate mode                    : Constant
Bit rate                         : 128 Kbps
Channel(s)                       : 2 channels
Sampling rate                    : 48.0 KHz
Resolution                       : 16 bits
Stream size                      : 140 MiB (13%)
Alignment                        : Split accross interleaves
Interleave, duration             : 250 ms (5.99 video frames)
Interleave, preload duration     : 448 ms
Writing library                  : LAME3.98.2
    ▄▄▄▄▄▄▄▄▄▄▄▄▄▄▄▄▄▄▄▄▄▄▄▄▄▄▄▄▄▄▄▄▄▄▄▄▄▄▄▄▄▄▄▄▄▄▄▄▄▄▄▄▄▄▄▄▄▄▄▄▄▄▄▄▄▄▄▄▄▄

                          █░░░░░░░░░░░░░░░░░░░░░░░░█
                         ██          Plot          ██
                          █░░░░░░░░░░░░░░░░░░░░░░░░█

A Jewish cinema owner (MΘlanie Laurent) in occupied 
Paris is forced to host a Nazi movie premiere, where 
a radical group of American Jewish soldiers called the 
Basterds, led by Lt. Aldo Raine (Brad Pitt), plans to 
roll out a score-settling scheme. The face-off is 
about to go down -- that's if Col. Hans Landa aka "The 
Jew Hunter" (Christoph Waltz) doesn't get in the way. 
Quentin Tarantino directs this World War II-set spaghetti
Western.

Starring: Brad Pitt, Christoph Waltz

Director: Quentin Tarantino
    ▄▄▄▄▄▄▄▄▄▄▄▄▄▄▄▄▄▄▄▄▄▄▄▄▄▄▄▄▄▄▄▄▄▄▄▄▄▄▄▄▄▄▄▄▄▄▄▄▄▄▄▄▄▄▄▄▄▄▄▄▄▄▄▄▄▄▄▄▄▄

ScreenShots 
http://imgshack.info/images/r52xtzbricqsv63ufn4y.png 
http://imgshack.info/images/hip2n2udvdwr1ioqhx66.png 
http://imgshack.info/images/vnfrqy9w0floguwvt7fg.png 
http://imgshack.info/images/40vn0q96v62n91358jbq.jpg 
http://highspeed.netai.net/ 
http://highspeedchat.hostzi.com/